<svg width="24" height="24" viewBox="0 0 24 24" fill="none" xmlns="http://www.w3.org/2000/svg">
<path d="M10.659 3.16522C11.1986 3.53072 11.6503 4.03686 12.0012 4.67068C12.3505 4.03686 12.8022 3.53072 13.3418 3.16522C14.6192 2.29991 16.235 2.39187 17.2074 3.3643C18.1798 4.33673 18.2718 5.95254 17.4065 7.22991C17.2911 7.40027 17.1616 7.56189 17.0186 7.71433L18 7.71373C18.6846 7.71373 19.2937 7.86649 19.8017 8.14623C20.3096 8.42596 20.7163 8.83269 20.9961 9.34063C21.2758 9.84856 21.4286 10.4577 21.4286 11.1423V11.5104C21.4286 12.3735 21.3092 12.8363 21.0851 13.2554C20.861 13.6744 20.5321 14.0033 20.1131 14.2274C19.9877 14.2945 19.8584 14.3521 19.7157 14.4L19.7143 17.0328C19.7143 18.5611 19.5551 19.1153 19.2563 19.674C18.9575 20.2328 18.519 20.6713 17.9603 20.9701C17.4016 21.2689 16.8474 21.428 15.319 21.428H8.68093C7.15261 21.428 6.59841 21.2689 6.03968 20.9701C5.48095 20.6713 5.04245 20.2328 4.74364 19.674C4.44483 19.1153 4.2857 18.5611 4.2857 17.0328L4.28514 14.4003C4.14206 14.3524 4.01251 14.2946 3.8869 14.2274C3.46785 14.0033 3.13898 13.6744 2.91487 13.2554C2.70943 12.8713 2.59203 12.4503 2.57389 11.718L2.57141 11.1423C2.57141 10.4577 2.72417 9.84856 3.00391 9.34063C3.28365 8.83269 3.69037 8.42596 4.19831 8.14623C4.70624 7.86649 5.31539 7.71373 5.99998 7.71373L6.98222 7.71433C6.83918 7.56189 6.70974 7.40027 6.59433 7.22991C5.72902 5.95254 5.82097 4.33673 6.79341 3.3643C7.76584 2.39187 9.38164 2.29991 10.659 3.16522ZM11.1428 14.5704L5.99998 14.5709V17.0328C5.99998 18.1674 6.06671 18.5129 6.25532 18.8656C6.39436 19.1256 6.58815 19.3194 6.84813 19.4584C7.20081 19.647 7.54633 19.7137 8.68093 19.7137L11.1428 19.7133V14.5704ZM12.8571 14.5704V19.7133L15.319 19.7137C16.4536 19.7137 16.7992 19.647 17.1518 19.4584C17.4118 19.3194 17.6056 19.1256 17.7446 18.8656C17.9333 18.5129 18 18.1674 18 17.0328V14.5709L12.8571 14.5704ZM11.1428 9.42757L5.99998 9.42802C5.60708 9.42802 5.28049 9.5073 5.0253 9.64784C4.80154 9.77107 4.62875 9.94386 4.50552 10.1676C4.36498 10.4228 4.2857 10.7494 4.2857 11.1423L4.28702 11.6645C4.29497 12.0983 4.33908 12.2834 4.42655 12.4469C4.49089 12.5672 4.57505 12.6514 4.69535 12.7157C4.87535 12.812 5.08145 12.8558 5.61649 12.8566L11.1428 12.8561V9.42757ZM18 9.42802L12.8571 9.42757V12.8561H18.3823L18.5222 12.8553C18.956 12.8473 19.1411 12.8032 19.3046 12.7157C19.4249 12.6514 19.5091 12.5672 19.5734 12.4469C19.6609 12.2834 19.705 12.0983 19.7129 11.6645L19.7143 11.1423C19.7143 10.7494 19.635 10.4228 19.4944 10.1676C19.3712 9.94386 19.1984 9.77107 18.9747 9.64784C18.7195 9.5073 18.3929 9.42802 18 9.42802ZM12.8571 7.71373C15.9857 7.41392 16.8818 5.39555 16.0286 4.5423C15.1753 3.68905 13.1569 4.58516 12.8571 7.71373ZM7.97224 4.5423C7.11899 5.39555 8.0151 7.41392 11.1437 7.71373C10.8439 4.58516 8.82549 3.68905 7.97224 4.5423Z" fill="currentColor"/>
</svg>
